<?xml version="1.0" encoding="UTF-8" standalone="no"?>
<!-- Created with Inkscape (http://www.inkscape.org/) -->

<svg
   xmlns:dc="http://purl.org/dc/elements/1.1/"
   xmlns:cc="http://creativecommons.org/ns#"
   xmlns:rdf="http://www.w3.org/1999/02/22-rdf-syntax-ns#"
   xmlns:svg="http://www.w3.org/2000/svg"
   xmlns="http://www.w3.org/2000/svg"
   xmlns:sodipodi="http://sodipodi.sourceforge.net/DTD/sodipodi-0.dtd"
   xmlns:inkscape="http://www.inkscape.org/namespaces/inkscape"
   width="38.040001mm"
   height="38.040001mm"
   viewBox="0 0 38.040001 38.040001"
   version="1.1"
   id="svg4133"
   inkscape:version="0.92.4 (5da689c313, 2019-01-14)"
   sodipodi:docname="2019-SI-03_planet_earth.svg">
  <defs
     id="defs4127" />
  <sodipodi:namedview
     id="base"
     pagecolor="#ffffff"
     bordercolor="#666666"
     borderopacity="1.0"
     inkscape:pageopacity="0.0"
     inkscape:pageshadow="2"
     inkscape:zoom="0.7"
     inkscape:cx="-480.16628"
     inkscape:cy="45.616987"
     inkscape:document-units="mm"
     inkscape:current-layer="layer1"
     showgrid="false"
     fit-margin-top="0"
     fit-margin-left="0"
     fit-margin-right="0"
     fit-margin-bottom="0"
     inkscape:window-width="1600"
     inkscape:window-height="837"
     inkscape:window-x="-8"
     inkscape:window-y="-8"
     inkscape:window-maximized="1" />
  <metadata
     id="metadata4130">
    <rdf:RDF>
      <cc:Work
         rdf:about="">
        <dc:format>image/svg+xml</dc:format>
        <dc:type
           rdf:resource="http://purl.org/dc/dcmitype/StillImage" />
        <dc:title></dc:title>
      </cc:Work>
    </rdf:RDF>
  </metadata>
  <g
     inkscape:label="Ebene 1"
     inkscape:groupmode="layer"
     id="layer1"
     transform="translate(-93.066499,-111.46284)">
    <g
       id="g2268"
       transform="translate(-46.022541,64.3523)">
      <path
         id="path815-2-3"
         d="m 177.12904,66.130539 a 19.02,19.02 0 0 1 -19.02,19.020001 19.02,19.02 0 0 1 -19.02,-19.020001 19.02,19.02 0 0 1 19.02,-19.02 19.02,19.02 0 0 1 19.02,19.02 z"
         style="opacity:1;vector-effect:none;fill:#0000ff;fill-opacity:1;stroke:none;stroke-width:0.51290774;stroke-linecap:round;stroke-linejoin:round;stroke-miterlimit:4;stroke-dasharray:none;stroke-dashoffset:0;stroke-opacity:1"
         inkscape:connector-curvature="0" />
      <path
         inkscape:connector-curvature="0"
         id="path815-8-3-0-7"
         d="m 147.30073,77.764614 a 16.074432,16.074432 0 0 1 -3.41794,-9.90121 16.074432,16.074432 0 0 1 16.07451,-16.074201 16.074432,16.074432 0 0 1 9.53689,3.157737 16.074432,16.074432 0 0 0 -12.65684,-6.173857 16.074432,16.074432 0 0 0 -16.07449,16.074492 16.074432,16.074432 0 0 0 6.53787,12.917039 z"
         style="opacity:1;vector-effect:none;fill:#4545ff;fill-opacity:1;stroke:none;stroke-width:0.51290774;stroke-linecap:round;stroke-linejoin:round;stroke-miterlimit:4;stroke-dasharray:none;stroke-dashoffset:0;stroke-opacity:1" />
      <path
         sodipodi:nodetypes="csccccccccccccccccscccsccscccccccscccccccsccccccccccccccccccccsccccscccccscccscccccccccsccccccccccccccccccccccccscccccccccccscccccccccccccscccccccccccsccsccccscccccc"
         inkscape:connector-curvature="0"
         id="path1545"
         d="m 163.14559,47.810517 c -1.6e-4,0.0026 -0.002,0.0066 -0.002,0.0088 0,7.94e-4 0.002,-0.0085 0.002,-0.0083 z m 0.0522,0.01344 c -0.029,0.119968 -0.12692,0.299916 -0.0538,0.373105 0.0781,0.0781 0.0615,1.261441 0.047,1.275892 -0.42722,0.427207 -0.84236,-0.264046 -1.27537,-0.04754 -0.16281,0.0814 -0.20952,0.398659 -0.33073,0.519864 -0.12302,0.123021 -0.4166,0.227462 -0.51987,0.330729 -0.0855,0.08555 0.24314,0.418317 0.0946,0.566891 -0.11573,0.115726 -0.34567,0.20356 -0.47284,0.330729 -0.088,0.08801 0.003,0.231551 -0.047,0.33073 -0.0476,0.09518 -0.52548,0.466706 -0.33073,0.661458 0.092,0.09197 0.16529,0.35443 0.2837,0.472839 0.0472,0.04725 0.18896,-2.24e-4 0.23616,0.04702 0.21498,0.214955 0.17583,0.352176 0.28319,0.566891 0.094,0.187944 0.37754,0.2354 0.47284,0.330729 0.0918,0.09179 0.45404,-0.09457 0.51934,-0.09457 0.29854,0 0.64879,-0.317545 0.80357,-0.472324 0.35785,-0.357854 1.07485,-0.319336 1.36995,-0.614431 0.1139,-0.113909 0.46286,0.08511 0.51986,0.14211 0.30479,0.304792 -0.18913,0.816163 -0.18913,1.039212 0,0.115443 -0.0247,0.474729 -0.0946,0.614434 -0.1192,0.238395 -0.004,0.665916 -0.23616,0.89762 -0.1843,0.184298 -0.48126,0.245094 -0.61392,0.377754 -0.12462,0.124621 -0.29957,0.29954 -0.37827,0.378272 -0.061,0.06101 -0.003,0.384071 -0.047,0.472321 -0.08,0.160054 -0.9094,0.501732 -1.03973,0.566891 -0.18023,0.09012 -0.42252,-0.422535 -0.47232,-0.472321 -0.11871,-0.118714 -0.23442,-0.423561 -0.37775,-0.566891 -0.14621,-0.146214 -0.4944,-0.211254 -0.56689,-0.283705 -0.0872,-0.08722 -0.11314,-0.254699 -0.18914,-0.330729 -0.10454,-0.104537 0.0946,-0.574797 0.0946,-0.708483 0,-0.653105 -0.66714,-0.966097 -1.18133,-0.709001 -0.0597,0.02983 -0.2383,-0.04536 -0.2837,0 -0.13672,0.136718 -0.2079,0.350014 -0.33073,0.472839 -0.0265,0.0265 0.89472,1.325819 0.51987,1.70067 -0.33981,0.339807 -1.0001,-0.228248 -1.13379,-0.09457 -0.0709,0.07087 -0.25982,0.02371 -0.33072,0.09457 -0.22066,0.220655 -0.53125,0.295085 -0.75603,0.519867 -0.0696,0.06956 -0.30895,-0.04754 -0.37775,-0.04754 -0.24083,0 -1.02447,0.126333 -1.1343,0.236162 -0.12853,0.128537 -0.15056,0.434213 -0.23616,0.519864 -0.4838,0.483801 0.002,0.616855 0.33073,0.945163 0.1035,0.103507 0.58332,0.455887 0.47232,0.566891 -0.0826,0.08257 -0.29843,0.692343 -0.33073,0.708482 -0.17049,0.08524 -0.39506,-0.07945 -0.51935,-0.141594 -0.0238,-0.01191 -0.6559,0.06803 -0.709,0.09457 -0.23835,0.119174 -0.49116,1.01029 -1.09554,1.198375 -0.41939,0.130513 -0.85987,0.710004 -1.00201,0.852146 -0.0394,0.03935 -0.14973,0.0076 -0.18913,0.04702 -0.0412,0.04122 0.2433,0.486 0.2837,0.566891 0.17797,0.355928 0.31551,0.726623 0.51935,1.134298 0.0832,0.166296 0.29577,0.260316 0.37827,0.425297 0.03,0.05998 0.04,0.18153 0.0946,0.236161 0.098,0.09798 0.42509,0.07026 0.71158,-0.132291 1.23733,-0.87476 1.02689,-0.482066 1.1498,-0.359151 0.10363,0.103611 0.84532,-0.08928 0.89762,-0.141594 0.15615,-0.156139 0.23777,-0.37936 0.37828,-0.519864 0.14908,-0.149082 1.41021,0.43204 1.55907,0.283186 0.10158,-0.101579 0.11379,-0.255379 0.23616,-0.377756 0.0936,-0.09359 0.33073,-0.25807 0.33073,-0.425297 0,-0.424976 0.51529,-0.232092 0.70849,-0.425296 0.24524,-0.244949 -0.0108,-0.886815 0.23616,-1.133782 0.0355,-0.03547 1.45703,-0.464722 1.46503,-0.472321 0.0635,-0.06355 0.35469,0.0231 0.42529,-0.04754 0.0979,-0.09794 0.0223,-0.188619 0.23617,-0.188619 0.2399,0 0.31169,0.028 0.42529,0.141594 0.1181,0.118116 -0.0711,0.543338 0.047,0.661459 0.22462,0.22461 0.32671,0.515337 0.51986,0.708482 0.01,0.0096 0.01,0.226561 0,0.236162 -0.10434,0.104339 -0.27392,-0.151368 -0.37827,-0.04703 -0.0515,0.05151 0.001,0.377756 0.0475,0.377756 0.17589,0 0.70405,-0.08967 0.80305,-0.188618 0.0552,-0.05521 -0.0475,-0.190784 -0.0475,-0.236162 -0.81235,-2.353778 -0.15698,-0.873556 0.14211,-1.937351 0.0586,-0.0586 0.3298,-0.04702 0.4253,-0.04702 0.60462,0 0.88426,0.03367 1.27537,0.42478 0.0403,0.04031 0.14896,0.193059 0.23617,0.236678 0.20379,0.101899 0.44483,0.160623 0.5674,0.283186 0.10743,0.783746 -0.66556,0.110289 -0.59466,0.181158 0.33428,0.334282 -0.34402,0.382918 -0.10504,0.621895 0.0369,0.03692 0.0319,0.142375 0.0475,0.189135 0.051,0.152913 0.12292,0.246872 0.18862,0.378272 0.33376,0.66752 -0.14536,1.767467 -0.23616,2.480469 -0.29924,-0.41307 0.43385,-0.616061 -0.19843,-0.826823 -0.0533,-0.01778 -0.53383,0.188619 -0.80306,0.188619 -0.29919,0 -0.71835,-0.185849 -0.99218,-0.09457 -0.27481,0.0916 -0.46893,0.25849 -0.70849,0.378272 -0.16759,0.0838 -1.36223,-0.317172 -1.60662,-0.378272 -0.56353,-0.140888 -0.66054,0.354042 -0.99219,0.519864 -0.24076,0.120386 -0.5281,0.169749 -0.75602,0.283705 -0.59429,0.297145 -1.75768,-1.077286 -2.50424,-0.330729 -0.031,0.03097 -0.16492,0.02334 -0.18862,0.04702 -0.5995,0.599504 -0.99146,1.368486 -1.41749,2.220537 -0.18842,0.376851 0.14482,1.361297 0,1.795756 -0.21328,0.639961 -0.40161,1.016214 -0.18913,1.653646 0.0392,0.116837 -0.0458,0.284874 0.047,0.377753 0.0493,0.04928 0.15448,0.148056 0.23668,0.189138 0.0597,0.02983 0.23779,-0.04536 0.28319,0 0.27385,0.273846 0.77917,0.464187 1.22835,0.613915 0.17553,0.05851 0.45061,-0.08191 0.61443,0 0.0628,0.03141 0.19789,0.0902 0.28319,0.04754 0.1568,-0.0784 0.20594,-0.320831 0.37827,-0.378272 0.57586,-0.191955 1.17332,-0.204097 1.46451,0.378272 0.14643,0.292867 -0.0265,1.092655 -0.14159,1.322917 -0.10461,0.209208 -0.24673,0.304297 -0.33073,0.472321 -0.0475,0.09505 -0.0633,2.15724 -0.047,2.173512 0.19887,0.198869 0.42344,0.563197 0.56689,0.850077 0.13229,0.264584 -0.1323,0.727604 0,0.992188 0.15156,0.303135 0.44211,1.045334 0.85008,1.181322 0.60832,0.202777 1.19697,0.236162 1.89032,0.236162 0.36375,0 0.93519,1.597027 1.55908,1.389062 0.84742,-0.282472 1.43501,-2.133113 1.79524,-2.853573 0.21577,-0.43153 0.15141,-0.133327 0.40618,-0.897618 0.30035,-0.901041 0.51877,-1.744445 0.80357,-2.598809 0.18957,-0.568727 -1.75393,-1.73143 -0.0476,-1.842264 0.14796,-0.443863 0.28856,-0.812761 0.47284,-1.181323 0.0831,-0.166243 -0.12739,-0.675658 0,-0.803052 0.15654,-0.156573 1.4065,-0.892861 1.2945,-1.228866 -0.0392,-0.117437 -0.22015,-1.830368 -0.0946,-1.955953 0.1124,-0.112392 0.32756,2.422911 0.37775,2.52336 0.0734,0.146696 5.3e-4,0.47293 0.0946,0.566891 0.35884,0.358841 0.30957,1.065078 0.709,1.464509 0.17523,0.175228 0.93896,0.0057 1.03922,-0.09457 0.15424,-0.154241 0.5775,-0.399499 0.70848,-0.661458 0.0532,-0.10632 0.0797,-0.220697 0.14211,-0.283186 0.16573,-0.165732 0.63984,-0.131559 0.85008,-0.236678 0.28189,-0.140946 0.73055,-0.399309 0.89813,-0.566891 0.13667,-0.136676 0.50887,-0.08358 0.66146,-0.236162 0.0671,-0.06706 -0.17887,-0.839816 -0.2837,-0.944644 -0.12727,-0.12727 -0.51535,-0.541383 -0.66146,-0.614434 -0.17965,-0.08983 -0.46232,-0.178612 -0.61443,-0.330729 -0.48274,-0.48274 -1.09769,-1.441606 -0.75551,-2.125967 0.12449,-0.249023 -0.0176,-0.597419 0.18862,-0.803569 0.24189,-0.24189 0.65086,-0.08341 0.66146,-0.09405 0.11255,-0.112556 0.0626,-0.487939 0.23616,-0.661458 0.13489,-0.134941 0.46217,-0.142111 0.66146,-0.142111 0.19471,0 0.6332,-0.08518 0.80356,0 0.26508,0.132541 0.53909,0.444511 0.75603,0.661459 0.12238,0.122377 0.3232,0.08756 0.42478,0.189134 0.12073,0.120735 0.21755,0.359148 0.33073,0.472324 0.11373,0.113734 0.36889,0.27433 0.47284,0.378272 0.0606,0.06064 0.0492,0.190741 0.0946,0.236162 0.0428,0.04275 0.48243,0.141224 0.76997,0.1881 -0.406,-8.182364 -6.00574,-15.185411 -13.89837,-17.381368 z m 7.6574,9.776658 c 0.40845,0.0154 1.34802,0.442942 1.46761,0.682131 0.14665,0.293285 -0.46441,0.480748 -0.2837,0.661458 0.0955,0.09551 1.37472,0.420516 0.85059,0.944644 -0.23957,0.23957 -0.64455,0.26629 -0.85059,0.472324 -0.18546,0.185465 -1.19058,0.721892 -1.34513,0.876438 -0.39129,0.391295 0.025,0.06404 -0.60461,0.850077 -0.99039,1.236382 -3.40462,-1.14686 -3.98427,-1.726515 -0.1732,-0.173239 2.19534,-0.771406 2.0221,-0.944644 -0.0652,-0.06515 -0.74671,-0.859388 -0.37776,-1.22835 0.18879,-0.18878 0.69991,0.0556 0.85008,-0.09457 0.18158,-0.181586 0.6997,-0.58329 0.6997,0.09457 0,0.4718 -1.07822,0.528405 -0.56741,1.039212 0.12584,0.125839 1.7657,-0.0645 1.89033,-0.189135 0.27603,-0.276026 -0.90506,-0.835715 -0.75603,-1.133781 0.14422,-0.288481 0.6143,-0.165302 0.85008,-0.283187 0.0327,-0.01635 0.0807,-0.02286 0.13901,-0.02066 z"
         style="fill:#008000;stroke:none;stroke-width:0.26458332px;stroke-linecap:butt;stroke-linejoin:miter;stroke-opacity:1" />
      <path
         inkscape:connector-curvature="0"
         id="path1549"
         d="m 154.63951,56.229165 c 0.28978,-0.517324 1.08421,-0.469998 1.41741,-0.803199 0.11812,-0.118118 0.54334,0.07087 0.66146,-0.04725 0.14571,-0.145717 0.32504,-0.446003 0.56696,-0.566965 0.0553,-0.02766 0.35352,-0.09284 0.37798,-0.14174 0.0664,-0.132866 -0.47519,-0.286195 -0.51972,-0.330729 -0.0944,-0.09439 -0.1139,-0.208397 -0.18899,-0.283483 -0.0433,-0.04326 -0.63312,-0.16065 -0.66146,-0.188989 -0.0983,-0.09828 0.0808,-0.222552 0.0945,-0.236236 0.0236,-0.02357 0,-0.199239 0,-0.236233 0,-0.275537 0.0737,-0.892106 -0.0473,-1.13393 -0.10011,-0.200221 -0.38675,-0.292251 -0.51972,-0.425223 -0.13979,-0.139798 -0.0233,-0.4485 -0.14174,-0.566965 -0.10818,-0.108177 -0.91267,-0.488606 -1.03943,-0.425222 -0.40963,0.204814 -0.0765,0.602975 0.0472,0.850447 0.36901,0.738011 0.0181,1.381273 -0.33072,2.078869 -0.0914,0.182805 0.17882,1.144087 0.0472,1.27567 -0.0284,0.02838 -0.0916,0.147425 -0.0472,0.236233 0.0441,0.08827 0.22668,0.122645 0.28348,0.236236 0.011,0.02199 -0.0945,0.36972 -0.0945,0.519718"
         style="fill:#008000;stroke:none;stroke-width:0.26458332px;stroke-linecap:butt;stroke-linejoin:miter;stroke-opacity:1" />
      <path
         inkscape:connector-curvature="0"
         id="path1551"
         d="m 153.03311,53.772321 c 0.48279,0.603988 0.59512,1.984375 -0.33073,1.984375 -0.073,0 -0.14749,0.09162 -0.23624,0.04725 -0.43671,-0.218358 0.28662,-0.714965 0.33073,-0.803198 0.1522,-0.304403 -1.34703,-0.832607 0.23624,-1.228423 z"
         style="fill:#008000;stroke:none;stroke-width:0.26458332px;stroke-linecap:butt;stroke-linejoin:miter;stroke-opacity:1" />
      <path
         inkscape:connector-curvature="0"
         id="path1553"
         d="m 156.38765,47.724702 c 0.0538,0.364914 -0.51972,0.440526 -0.51972,0.708705 0,0.425821 0.10009,0.850445 0.56696,0.850445 0.18738,0 -0.23112,0.377976 0.42523,0.377976 0.42567,0 0.59948,-1.290391 0.42522,-1.464657 -0.11122,-0.11122 -0.34914,-0.112908 -0.42522,-0.188989 -0.0961,-0.09607 -0.0334,-0.219535 -0.18899,-0.14174"
         style="fill:#008000;stroke:none;stroke-width:0.26458332px;stroke-linecap:butt;stroke-linejoin:miter;stroke-opacity:1" />
      <path
         id="path1555"
         d="m 143.82016,53.600344 a 19.02,19.02 0 0 0 -4.73098,12.529987 19.02,19.02 0 0 0 0.20257,2.622579 c 0.13831,0.113977 1.17322,0.06726 1.40974,0.185518 0.14832,0.07416 0.33559,0.288551 0.4253,0.378272 0.16738,0.167388 0.2537,0.553892 0.37827,0.80305 0.10166,0.203316 0.34588,0.377634 0.42478,0.614434 0.0428,0.128505 0.0252,0.355433 0.14211,0.472321 0.25658,0.256585 0.79787,0.514164 0.99218,0.708485 0.3288,0.328806 0.51444,0.798655 0.85008,1.134298 0.0892,0.08925 0,0.176556 0,0.283186 0,0.640048 -0.35965,0.737926 -0.75551,1.133782 -0.0841,0.08414 -0.27418,0.03802 -0.37827,0.14211 -0.0609,0.06092 -0.44395,0.906823 -0.37776,1.039212 0.17757,0.355132 0.42352,0.707213 0.70849,0.992188 0.12708,0.127076 0.34625,0.157628 0.47232,0.283704 0.16208,0.162071 0.25494,0.320228 0.37827,0.566889 0.0232,0.0464 0.45731,0.362741 0.56689,0.472323 0.17137,0.171371 0.44546,0.199213 0.70849,0.330729 0.41416,0.207085 1.16026,0.971122 1.51205,1.322917 0.11009,0.110075 0.0922,0.281361 0.18914,0.378272 0.49866,0.498655 0.84159,1.361459 1.36994,1.889808 0.0459,0.04593 0.0736,0.201901 0.14211,0.236159 0.60302,0.301511 0.27216,0.566891 1.13378,0.566891 0.037,0 0.21256,0.02357 0.23616,0 0.19513,-0.195125 -0.17243,-0.644753 -0.33073,-0.80305 -0.1141,-0.114102 -0.12544,-0.456168 -0.23616,-0.566891 -0.0233,-0.02326 -0.50542,-2.348201 -0.61443,-2.457215 -0.13297,-0.132924 -0.0113,-1.264126 0.0475,-1.322916 0.2017,-0.201703 -0.24943,-0.768808 -0.33073,-0.850077 -0.0683,-0.06827 -0.0946,-0.563399 -0.0946,-0.661459 0,-0.367313 0.11121,-2.440056 -0.0946,-2.645833 -0.15006,-0.150066 -0.27161,-0.318643 -0.37827,-0.425297 -0.14393,-0.143933 -0.70823,0.09469 -0.89762,0 -0.1872,-0.0936 -0.35375,-0.106336 -0.51935,-0.189137 -0.32512,-0.162555 -0.5896,0.403087 -0.89813,0.09457 -0.1221,-0.122099 -0.41318,-0.129989 -0.51935,-0.236159 -0.19946,-0.199509 0.14131,-0.708771 -0.0475,-0.89762 -0.0866,-0.08662 -0.29116,-0.05549 -0.37776,-0.14211 -0.43014,-0.430157 -1.08021,-0.513318 -1.46451,-0.89762 -0.0454,-0.04542 -0.17556,-0.03393 -0.23616,-0.09457 -0.15227,-0.152273 -0.29187,-0.575061 -0.4253,-0.708485 -0.0449,-0.04492 -0.14211,-0.17127 -0.14211,-0.236159 0,-0.178446 -0.68816,-1.01251 -0.47232,-1.228349 0.14874,-0.148792 0.0725,-0.734449 0.1416,-0.803569 0.10485,-0.104849 0.222,-0.410618 0.33072,-0.519348 0.1351,-0.135088 0.47629,-0.192582 0.61444,-0.330729 0.11353,-0.11353 0.47099,0.04838 0.56689,-0.04754 0.0434,-0.04337 0.19375,-0.163058 0.33073,-0.09457 0.28611,0.143055 0.8043,0.379728 0.94516,0.661459 0.0697,0.139443 0.14966,0.338775 0.23616,0.425296 0.0766,0.07656 0.0312,0.314913 0.0946,0.378272 0.23349,0.233485 0.69986,0.652828 0.94465,0.897621 0.0823,0.08229 0.40015,0.261299 0.56688,0.09457 0.0631,-0.063 -0.0353,-0.22501 -0.047,-0.236678 -0.0606,-0.06056 0.0398,-0.298077 0,-0.377756 -0.14332,-0.286636 -0.35272,-0.399759 -0.51986,-0.566891 -0.10251,-0.102822 -0.0346,-0.3052 -0.0946,-0.425297 -0.18781,-0.375621 -0.8428,-0.629496 -0.56689,-1.181322 0.27312,-0.546227 0.83319,-0.07665 1.03972,-0.283186 0.39868,-0.398674 -1.22475,-1.893927 -0.61443,-2.504241 0.0392,-0.03937 0.008,-0.149765 0.0476,-0.189135 0.10918,-0.109186 0.28158,0.11888 0.51934,0 0.26036,-0.130183 0.49054,-0.481169 0.75603,-0.613916 0.1825,-0.09124 0.53411,0.04703 0.66146,0.04703 0.91918,0 0.79407,-0.170659 1.13378,-0.850077 0.10681,-0.213628 -0.51402,-1.307002 -0.61392,-1.606622 -0.076,-0.228041 0.0537,-1.477901 0.1416,-1.653646 0.0196,-0.03914 0.15047,-0.18022 0.0946,-0.236159 -0.15308,-0.153085 -1.11248,-0.262406 -1.13378,-0.283704 -0.43352,-0.433518 -0.76505,-1.000689 -1.1343,-1.369942 -0.15389,-0.1539 -0.49277,-0.139895 -0.70848,-0.283704 -0.39625,-0.264171 -0.61775,-0.570214 -0.94516,-0.89762 -0.49289,-0.492893 -1.03991,-0.956136 -0.61392,-1.700671 -0.0405,-0.05395 -0.0921,-0.167362 -0.14159,-0.266652 z"
         style="fill:#008000;stroke:none;stroke-width:0.26458332px;stroke-linecap:butt;stroke-linejoin:miter;stroke-opacity:1"
         inkscape:connector-curvature="0" />
      <path
         sodipodi:nodetypes="cccccccccc"
         inkscape:connector-curvature="0"
         id="path1557"
         d="m 152.74623,47.895266 c -2.1109,0.624451 -4.09738,1.610609 -5.87096,2.914552 0.11779,0.189275 0.25439,0.369245 0.34623,0.552937 2.08624,2.165522 0.55477,0.04984 1.64435,2.617412 0.0798,0.159565 0.71194,0.731041 0.94516,0.614434 0.13533,-0.06767 -0.0308,-0.300477 0.047,-0.378273 1.1905,-3.775257 0.81483,-0.06958 1.80506,-3.468004 0.15228,-0.456856 0.28069,-0.890654 0.42478,-1.322917 0.12598,-0.377965 -0.0114,-0.726276 0.4253,-0.944645 0.0986,-0.04928 0.17717,-0.290901 0.23306,-0.585496 z"
         style="fill:#f2f2f2;stroke:none;stroke-width:0.26458332px;stroke-linecap:butt;stroke-linejoin:miter;stroke-opacity:1" />
      <path
         id="path1559"
         d="m 163.20554,81.621372 c -0.14036,-0.0013 -0.3076,0.0645 -0.39222,0.120925 -0.19617,0.130781 -0.31565,0.336691 -0.51987,0.47284 -0.44266,0.295098 -1.12156,0.277077 -1.6061,0.519348 -0.39071,0.195355 -1.17842,-0.332182 -1.37046,-0.236162 -0.38408,0.192043 -0.0395,0.846585 -0.33073,0.992188 -0.18457,0.09228 -0.45939,0.04405 -0.66146,0.09457 -0.40676,0.10169 -0.78052,0.291695 -1.18132,0.425297 -0.28352,0.09451 -0.8996,0.04703 -1.18081,0.04703 -0.0571,0 -0.5573,0.408524 -1.03043,0.805116 a 19.02,19.02 0 0 0 3.17707,0.287838 19.02,19.02 0 0 0 7.32048,-1.484146 c -0.47742,-0.986597 -1.20762,-1.57352 -2.09651,-2.017964 -0.0367,-0.01834 -0.0808,-0.0264 -0.12764,-0.02687 z"
         style="opacity:1;vector-effect:none;fill:#f2f2f2;fill-opacity:1;stroke:none;stroke-width:0.26458332px;stroke-linecap:butt;stroke-linejoin:miter;stroke-miterlimit:4;stroke-dasharray:none;stroke-dashoffset:0;stroke-opacity:1"
         inkscape:connector-curvature="0" />
      <path
         style="opacity:1;vector-effect:none;fill:#499049;fill-opacity:1;stroke:none;stroke-width:0.99999994px;stroke-linecap:butt;stroke-linejoin:miter;stroke-miterlimit:4;stroke-dasharray:none;stroke-dashoffset:0;stroke-opacity:1"
         d="m 1345.4707,473.48047 a 60.753759,60.753759 0 0 0 -12.6035,36.98242 60.753759,60.753759 0 0 0 4.0762,21.60352 c 0.1388,0.20407 0.2576,0.41722 0.3339,0.64648 0.053,0.15837 0.084,0.35821 0.1133,0.56836 a 60.753759,60.753759 0 0 0 0.541,1.32031 c 1.0063,0.93514 2.9247,1.86598 3.6329,2.57422 1.2427,1.24273 1.9443,3.01854 3.2128,4.28711 0.3372,0.33732 0,0.6673 0,1.07031 0,1.28131 -0.3877,1.9845 -0.9687,2.58789 a 60.753759,60.753759 0 0 0 13.7676,14.16211 60.753759,60.753759 0 0 1 -11.3477,-24.05859 c -1.5446,-1.05125 -3.4515,-1.4789 -4.664,-2.69141 -0.1716,-0.17166 -0.6636,-0.12823 -0.8926,-0.35742 -0.5755,-0.57552 -1.1031,-2.17345 -1.6074,-2.67773 -0.1697,-0.16978 -0.5372,-0.64733 -0.5372,-0.89258 0,-0.67444 -2.6009,-3.82681 -1.7851,-4.64258 0.5622,-0.56236 0.274,-2.77587 0.5351,-3.03711 0.3963,-0.39628 0.8391,-1.55194 1.25,-1.96289 0.5107,-0.51057 1.8002,-0.72787 2.3223,-1.25 0.4291,-0.42909 1.7801,0.18285 2.1426,-0.17969 0.164,-0.16391 0.7323,-0.61627 1.25,-0.35742 0.1826,0.0913 0.4132,0.20579 0.6348,0.31641 a 60.753759,60.753759 0 0 1 12.5996,-32.83789 c -1.4703,-1.58145 -2.655,-3.50453 -3.9493,-4.79883 -0.5816,-0.58167 -1.8624,-0.52874 -2.6777,-1.07227 -1.4976,-0.99844 -2.3348,-2.15513 -3.5723,-3.39258 -0.633,-0.63306 -1.2786,-1.25685 -1.8066,-1.91015 z"
         transform="matrix(0.26458333,0,0,0.26458333,-211.89141,-70.212537)"
         id="path815-8-3-0-7-8"
         inkscape:connector-curvature="0" />
      <path
         style="opacity:1;vector-effect:none;fill:#499049;fill-opacity:1;stroke:none;stroke-width:0.99999994px;stroke-linecap:butt;stroke-linejoin:miter;stroke-miterlimit:4;stroke-dasharray:none;stroke-dashoffset:0;stroke-opacity:1"
         d="m 1412.3457,452.69531 c -0.2798,0.48413 -0.4683,1.13237 -0.7812,1.44531 -0.465,0.46497 -1.5746,0.8597 -1.9649,1.25 -0.3231,0.32334 0.9188,1.58104 0.3574,2.14258 -0.4374,0.43739 -1.3064,0.76936 -1.7871,1.25 -0.3326,0.33264 0.011,0.87515 -0.1777,1.25 -0.093,0.186 -0.6176,0.65051 -1.0039,1.15821 a 60.753759,60.753759 0 0 1 14.7383,2.24609 c 0,-0.004 0.011,-0.007 0.016,-0.0117 0.4305,-0.43052 1.7494,0.32168 1.9648,0.53711 0.01,0.01 0.016,0.0211 0.025,0.0312 a 60.753759,60.753759 0 0 1 17.7246,9.04883 60.753759,60.753759 0 0 0 -29.1113,-20.34766 z"
         transform="matrix(0.26458333,0,0,0.26458333,-211.89141,-70.212537)"
         id="path815-8-3-0-7-2"
         inkscape:connector-curvature="0" />
      <path
         style="opacity:1;vector-effect:none;fill:#c9c9ff;fill-opacity:1;stroke:none;stroke-width:1.93854892;stroke-linecap:round;stroke-linejoin:round;stroke-miterlimit:4;stroke-dasharray:none;stroke-dashoffset:0;stroke-opacity:1"
         d="m 1375.5801,452.45312 a 60.753759,60.753759 0 0 0 -16.959,8.39649 c 5.6289,5.62434 1.0458,-0.47318 4.8711,8.54101 0.3016,0.60309 2.6908,2.76299 3.5723,2.32227 0.5114,-0.25576 -0.1164,-1.13565 0.1777,-1.42969 4.4995,-14.26868 3.0797,-0.26298 6.8223,-13.10742 0.5435,-1.63084 1.007,-3.17876 1.5156,-4.72266 z"
         transform="matrix(0.26458333,0,0,0.26458333,-211.89141,-70.212537)"
         id="path815-8-3-0-7-64"
         inkscape:connector-curvature="0" />
    </g>
  </g>
</svg>
