<?xml version="1.0" encoding="UTF-8" standalone="no"?>
<!-- Created with Inkscape (http://www.inkscape.org/) -->

<svg
   xmlns:dc="http://purl.org/dc/elements/1.1/"
   xmlns:cc="http://creativecommons.org/ns#"
   xmlns:rdf="http://www.w3.org/1999/02/22-rdf-syntax-ns#"
   xmlns:svg="http://www.w3.org/2000/svg"
   xmlns="http://www.w3.org/2000/svg"
   xmlns:sodipodi="http://sodipodi.sourceforge.net/DTD/sodipodi-0.dtd"
   xmlns:inkscape="http://www.inkscape.org/namespaces/inkscape"
   width="48.440075mm"
   height="48.439999mm"
   viewBox="0 0 48.440075 48.439999"
   version="1.1"
   id="svg4133"
   inkscape:version="0.92.4 (5da689c313, 2019-01-14)"
   sodipodi:docname="2019-SI-03_planet_jupiter.svg">
  <defs
     id="defs4127" />
  <sodipodi:namedview
     id="base"
     pagecolor="#ffffff"
     bordercolor="#666666"
     borderopacity="1.0"
     inkscape:pageopacity="0.0"
     inkscape:pageshadow="2"
     inkscape:zoom="0.7"
     inkscape:cx="-460.5126"
     inkscape:cy="65.270529"
     inkscape:document-units="mm"
     inkscape:current-layer="layer1"
     showgrid="false"
     fit-margin-top="0"
     fit-margin-left="0"
     fit-margin-right="0"
     fit-margin-bottom="0"
     inkscape:window-width="1600"
     inkscape:window-height="837"
     inkscape:window-x="-8"
     inkscape:window-y="-8"
     inkscape:window-maximized="1" />
  <metadata
     id="metadata4130">
    <rdf:RDF>
      <cc:Work
         rdf:about="">
        <dc:format>image/svg+xml</dc:format>
        <dc:type
           rdf:resource="http://purl.org/dc/dcmitype/StillImage" />
        <dc:title></dc:title>
      </cc:Work>
    </rdf:RDF>
  </metadata>
  <g
     inkscape:label="Ebene 1"
     inkscape:groupmode="layer"
     id="layer1"
     transform="translate(-87.866462,-106.26284)">
    <g
       id="g2257"
       transform="translate(-63.958774,15.622951)">
      <g
         id="g1725"
         transform="matrix(1.2733964,0,0,1.2733965,-55.466571,-28.157031)">
        <path
           inkscape:connector-curvature="0"
           style="opacity:1;vector-effect:none;fill:#caccd1;fill-opacity:1;stroke:none;stroke-width:0.20777763px;stroke-linecap:butt;stroke-linejoin:miter;stroke-miterlimit:4;stroke-dasharray:none;stroke-dashoffset:0;stroke-opacity:1"
           d="m 200.82655,112.31138 a 19.02,19.02 0 0 1 -19.02,19.02 19.02,19.02 0 0 1 -19.02,-19.02 19.02,19.02 0 0 1 19.02,-19.019997 19.02,19.02 0 0 1 19.02,19.019997 z"
           id="path815-2-3-5" />
        <path
           style="opacity:1;vector-effect:none;fill:#dedfe2;fill-opacity:1;stroke:none;stroke-width:0.20777763px;stroke-linecap:butt;stroke-linejoin:miter;stroke-miterlimit:4;stroke-dasharray:none;stroke-dashoffset:0;stroke-opacity:1"
           d="m 170.99824,123.94546 a 16.074432,16.074432 0 0 1 -3.41794,-9.90121 16.074432,16.074432 0 0 1 16.07451,-16.074202 16.074432,16.074432 0 0 1 9.53689,3.157742 16.074432,16.074432 0 0 0 -12.65684,-6.173863 16.074432,16.074432 0 0 0 -16.07449,16.074493 16.074432,16.074432 0 0 0 6.53787,12.91704 z"
           id="path815-8-3-0-7-6"
           inkscape:connector-curvature="0" />
      </g>
      <path
         style="opacity:1;vector-effect:none;fill:#8b7d7c;fill-opacity:1;stroke:none;stroke-width:0.26458332px;stroke-linecap:butt;stroke-linejoin:miter;stroke-miterlimit:4;stroke-dasharray:none;stroke-dashoffset:0;stroke-opacity:1"
         d="m 167.40528,101.57623 c -0.6925,0.006 -1.37517,0.0659 -2.0407,0.19895 -2.15315,0.43063 -3.62699,2.46304 -5.85856,2.83497 -1.57231,0.26205 -3.17845,-0.18913 -4.72477,-0.18913 -0.19564,0 -0.37816,0.009 -0.56483,0.015 a 24.219999,24.220001 0 0 0 -1.25315,3.11247 c 0.86068,-0.13387 1.68411,-0.30643 2.38487,-0.48162 1.18677,-0.29669 2.57838,0.24025 3.77961,0 1.18784,-0.23756 2.3935,-0.51653 3.591,-0.75603 1.49183,-0.29836 2.33237,-1.71661 3.77961,-2.07842 1.85727,-0.46431 4.29788,0.21693 6.0477,0.56689 2.34279,0.46856 4.79086,-0.58758 7.18147,-0.18914 2.99459,0.4991 5.59745,2.10823 8.50439,2.83497 2.48605,0.62151 4.83089,-1.81613 6.80372,-1.32292 1.2526,0.31315 2.52087,0.49197 3.80493,0.62632 a 24.219999,24.220001 0 0 0 -1.33997,-3.1011 c -0.59841,0.0849 -1.22845,0.0522 -1.89807,-0.17105 -0.63097,-0.21032 -1.08969,-0.7415 -1.70067,-0.94516 -2.25563,-0.75188 -2.87379,3.19331 -4.34703,2.4567 -1.11218,-0.5561 -1.70708,-1.74931 -3.02358,-2.07843 -3.12483,-0.78121 -7.622,0.70534 -10.20558,0.18862 -2.73765,-0.54753 -5.91955,-1.54698 -8.92039,-1.52187 z"
         id="path1729"
         inkscape:connector-curvature="0" />
      <path
         style="opacity:1;vector-effect:none;fill:#a05a2c;fill-opacity:1;stroke:none;stroke-width:0.26458332px;stroke-linecap:butt;stroke-linejoin:miter;stroke-miterlimit:4;stroke-dasharray:none;stroke-dashoffset:0;stroke-opacity:1"
         d="m 172.04479,113.49798 c -0.64932,0.0254 -1.41429,0.18911 -2.47478,0.5426 -1.19248,0.39749 -2.74508,-0.30591 -3.96875,0 -4.2398,1.05995 -8.78801,0.9762 -12.85141,-0.37827 -0.26316,-0.0877 -0.55462,-0.12 -0.85887,-0.11679 a 24.22,24.220002 0 0 0 -0.0656,1.31413 24.22,24.220002 0 0 0 0.0569,1.61386 c 2.66438,-0.13054 7.94855,0.30513 8.80515,0.59066 2.194,0.73133 3.93009,-0.74314 5.66942,-1.32291 1.28708,-0.42903 2.98871,0.27459 4.15788,0.56688 1.52786,0.38196 5.68493,0.93019 6.80372,-0.18862 0.13094,-0.13093 0.24682,-0.62508 0.37776,-0.75602 0.0294,-0.0294 0.42638,-0.32963 0.18914,-0.56689 -0.19003,-0.19001 -1.05299,0.09 -1.32292,0 -2.22092,-0.74031 -3.08905,-1.35454 -4.51756,-1.29863 z"
         id="path1731"
         inkscape:connector-curvature="0" />
      <path
         style="fill:#ae9a74;fill-opacity:1;stroke:none;stroke-width:0.26458332px;stroke-linecap:butt;stroke-linejoin:miter;stroke-opacity:1"
         d="m 158.44511,123.66584 c -1.18356,-0.003 -2.07176,1.20235 -3.09697,1.54409 -0.28388,0.0946 -0.67329,0.16438 -1.07384,0.22117 a 24.22,24.220002 0 0 0 21.77077,13.64878 24.22,24.220002 0 0 0 21.99194,-14.13402 c -0.75914,0.2349 -1.63133,0.60148 -2.43448,0.83096 -1.86015,0.53148 -9.43753,0.13009 -10.96109,-0.37776 -2.52028,-0.8401 -4.51743,2.21093 -7.18147,1.32292 -0.76041,-0.25349 -1.75097,0.0934 -2.45722,-0.18914 -0.80762,-0.32305 -1.64444,-0.91678 -2.45669,-1.32291 -0.72199,-0.361 -6.21303,1.13378 -7.74837,1.13378 -1.78134,0 -3.63506,-0.42181 -4.91391,-1.70067 -0.13357,-0.13356 -0.37525,-0.66023 -0.56689,-0.75603 -0.30992,-0.15496 -0.59866,-0.22041 -0.87178,-0.22117 z"
         id="path1908"
         inkscape:connector-curvature="0" />
      <path
         style="opacity:1;vector-effect:none;fill:#8b7d7c;fill-opacity:1;stroke:none;stroke-width:0.26458332px;stroke-linecap:butt;stroke-linejoin:miter;stroke-miterlimit:4;stroke-dasharray:none;stroke-dashoffset:0;stroke-opacity:1"
         d="m 183.31697,118.84908 c -2.35352,-0.0111 -4.67513,0.25974 -6.8802,0.99476 -2.5576,0.85254 -5.3226,-1.40975 -7.9375,-0.75602 -1.15061,0.28765 -2.18318,0.75602 -3.40186,0.75602 -1.44544,0 -3.14405,0.15454 -4.34702,0.75603 -0.17265,0.0863 -0.54006,0.43306 -0.84801,0.72399 0.81561,0.003 2.24371,0.27315 2.92696,0.40979 2.70262,0.54053 5.80994,1.7105 8.69352,1.13378 1.28747,-0.25749 2.45471,-1.3219 3.591,-1.70067 1.34852,-0.44951 2.51113,0.75603 3.77961,0.75603 2.33906,0 6.67084,-0.69481 8.69353,-0.18914 2.94765,0.73692 5.71147,1.71119 8.69352,2.4567 0.63806,0.15952 1.30642,0.23571 1.988,0.27647 a 24.22,24.220002 0 0 0 1.187,-3.51348 c -1.4962,-0.18517 -3.01122,-0.24527 -4.49791,-0.5426 -3.70705,-0.74142 -7.7181,-1.54313 -11.64064,-1.56166 z m -23.41459,2.47478 c -0.5117,-0.002 -0.78402,0.10068 -0.4749,0.40979 0.0202,0.0202 0.23069,-0.17908 0.4749,-0.40979 z"
         id="path1733"
         inkscape:connector-curvature="0" />
      <path
         style="opacity:1;vector-effect:none;fill:#997b54;fill-opacity:1;stroke:none;stroke-width:0.26458332px;stroke-linecap:butt;stroke-linejoin:miter;stroke-miterlimit:4;stroke-dasharray:none;stroke-dashoffset:0;stroke-opacity:1"
         d="m 154.58385,126.06104 a 24.22,24.220002 0 0 0 4.70617,6.24975 c 0.3612,7.9e-4 0.70916,0.0247 1.01751,0.1018 1.00943,0.25235 2.01277,0.5032 3.0241,0.75602 0.66825,0.16706 3.31012,-0.28035 3.77961,0.18914 1.41227,1.41226 2.48969,3.77961 4.91392,3.77961 2.6527,0 5.89289,-0.77319 8.12612,-1.8898 1.06439,-0.5322 1.87271,-1.69399 2.15335,-2.00918 -0.53636,0.0656 -2.81683,-0.63666 -2.90886,-0.63666 -2.67757,0 -5.0463,-0.94516 -7.74889,-0.94516 -1.62161,0 -3.3993,0.5047 -4.91339,0 -0.63577,-0.21192 -1.09454,-1.2082 -1.70119,-1.51153 -1.75673,-0.87837 -3.57678,-2.38961 -5.48028,-3.02411 -1.58311,-0.5277 -3.27383,-0.88804 -4.96817,-1.05988 z m 27.72078,7.17734 c 0.0716,-0.009 0.11472,-0.0301 0.11472,-0.0698 0,-0.0486 -0.0459,-0.008 -0.11472,0.0698 z"
         id="path1735"
         inkscape:connector-curvature="0" />
      <path
         style="opacity:1;vector-effect:none;fill:#a05a2c;fill-opacity:1;stroke:none;stroke-width:0.26458332px;stroke-linecap:butt;stroke-linejoin:miter;stroke-miterlimit:4;stroke-dasharray:none;stroke-dashoffset:0;stroke-opacity:1"
         d="m 184.30761,126.50597 c -1.75338,-0.0354 -3.21425,0.24699 -4.06848,1.10123 -1.54988,1.54989 -2.3e-4,3.0241 1.70118,3.0241 1.18125,0 3.49115,-0.71137 4.53565,-0.18913 0.49802,0.24901 1.02994,1.21909 1.32291,1.51205 0.24517,0.24517 1.86208,0 2.26756,0 0.54903,0 1.05703,-0.15076 1.51205,-0.37827 0.48431,-0.24216 1.2642,-0.28896 2.1668,-0.2279 a 24.22,24.220002 0 0 0 2.28978,-2.81223 c -3.34883,-0.56128 -8.14656,-1.95753 -11.72745,-2.02985 z"
         id="path1737"
         inkscape:connector-curvature="0" />
      <path
         style="fill:#997b54;fill-opacity:1;stroke:none;stroke-width:0.26458332px;stroke-linecap:butt;stroke-linejoin:miter;stroke-opacity:1"
         d="m 167.91946,107.60067 c -1.37904,0.016 -2.7342,0.1496 -3.33003,0.44751 -1.40761,0.70381 -1.99762,2.93395 -3.40134,3.40186 1.94565,-0.64855 3.59488,-2.26808 5.85856,-2.26808 3.5582,0 5.42062,0.31658 8.88214,1.70119 0.57725,0.2309 1.23403,0.58916 1.92598,0.98909 -1.42784,-1.38718 -4.1075,-3.42466 -6.46162,-4.01319 -0.69158,-0.1729 -2.09465,-0.27438 -3.47369,-0.25838 z m 9.93531,4.27157 c 0.0485,0.0471 0.10749,0.0992 0.15297,0.14469 0.12059,0.12059 4.24311,2.59414 4.72477,2.83497 0.40066,0.20034 1.43191,0 1.88981,0 1.38385,0 2.92173,-0.15484 4.15789,-0.56689 1.3826,-0.46087 1.9686,-1.33051 2.72645,-2.04948 -0.76804,-0.3813 -1.90411,-0.85232 -2.3487,-0.40773 -1.72508,1.72508 -2.6143,2.64583 -5.48029,2.64583 -1.62778,0 -3.87176,-1.47369 -5.8229,-2.60139 z m 13.65189,0.36329 c 0.3035,0.15067 0.55479,0.28798 0.6754,0.34829 2.6245,1.31225 5.24077,2.61053 8.05895,2.76211 a 24.22,24.220002 0 0 0 0.0243,-0.48628 24.22,24.220002 0 0 0 -0.0413,-1.16582 c -1.42303,-0.90656 -2.90047,-1.84608 -4.4514,-2.62154 -0.23953,-0.11977 -0.8601,0 -1.13378,0 -1.64344,0 -2.45594,0.52175 -3.13211,1.16324 z m -30.31857,-0.78549 c -1.53189,0.51063 -3.28457,-0.0296 -4.91391,0.37776 -0.19986,0.05 -0.39796,0.0928 -0.59686,0.13901 1.01139,0.33759 1.92548,0.48937 2.6758,0.23926 0.93409,-0.31136 1.90749,-0.44687 2.83497,-0.75603 z m -5.51077,0.51677 c -1.065,-0.35549 -2.23873,-0.91585 -3.44269,-1.43196 a 24.22,24.220002 0 0 0 -0.30541,2.25103 c 1.26939,-0.29131 2.5037,-0.52964 3.7481,-0.81907 z"
         id="path1739"
         inkscape:connector-curvature="0" />
      <path
         style="opacity:1;vector-effect:none;fill:#d38d5f;fill-opacity:1;stroke:none;stroke-width:0.26458332px;stroke-linecap:butt;stroke-linejoin:miter;stroke-miterlimit:4;stroke-dasharray:none;stroke-dashoffset:0;stroke-opacity:1"
         d="m 171.54922,91.077644 a 24.22,24.220001 0 0 0 -10.05934,4.451924 c 1.39379,-0.519589 2.88455,-1.109826 4.63073,-1.691886 1.92633,-0.642109 4.96926,-0.585512 7.18147,-1.322917 0.0368,-0.01228 0.0748,-0.02148 0.11266,-0.03049 -0.56241,-0.549532 -1.1692,-1.036495 -1.86552,-1.406634 z m 1.86552,1.406634 c 1.07972,1.055007 2.00121,2.333495 3.10007,3.432346 1.27301,1.273025 3.47318,1.804959 5.10252,2.456699 1.27023,0.508085 2.40968,0.567407 3.78014,0.567407 2.70205,0 3.18996,-1.814708 3.92947,-3.469039 -2.80014,-2.238542 -5.82841,-3.145544 -10.1663,-3.145544 -1.06367,0 -2.27385,-0.124333 -3.21273,0.188618 -0.75694,0.252318 -1.75392,-0.215865 -2.53317,-0.03049 z m 15.9122,2.987413 c 0.52239,0.417621 1.03733,0.876614 1.55081,1.390097 0.0833,0.08328 0.69648,0.16094 1.58078,0.228409 a 24.22,24.220001 0 0 0 -2.81326,-2.266013 c -0.1137,0.210455 -0.21957,0.426577 -0.31833,0.647507 z"
         id="path1741"
         inkscape:connector-curvature="0" />
      <path
         style="fill:#ab7442;fill-opacity:1;stroke:none;stroke-width:0.26458332px;stroke-linecap:butt;stroke-linejoin:miter;stroke-opacity:1"
         d="m 176.04507,90.639944 a 24.219999,24.220001 0 0 0 -19.32544,9.670726 c 1.09889,0.58374 2.09901,1.89036 3.57911,1.15032 0.19164,-0.0958 0.43332,-0.62247 0.56689,-0.75603 1.27885,-1.27886 3.13257,-1.701185 4.91391,-1.701185 1.53534,0 7.02638,1.495295 7.74837,1.134295 0.81225,-0.40613 1.64907,-0.999863 2.45669,-1.322914 0.70625,-0.28249 1.69681,0.06435 2.45722,-0.189135 2.66404,-0.88801 4.66119,2.163019 7.18147,1.322917 1.18485,-0.394949 6.0221,-0.723464 8.99325,-0.600999 a 24.219999,24.220001 0 0 0 -18.57147,-8.707995 z"
         id="path1908-0"
         inkscape:connector-curvature="0" />
      <path
         id="path815-8-3-0-7-6-8"
         d="m 174.42605,92.757129 a 20.469124,20.469126 0 0 0 -16.48065,8.369521 c 0.6912,0.46006 1.42855,0.79674 2.35335,0.33434 0.19163,-0.0958 0.43331,-0.62247 0.56688,-0.75602 1.27885,-1.278865 3.13258,-1.701193 4.91392,-1.701193 0.48968,0 1.39568,0.157472 2.40709,0.352949 a 20.469124,20.469126 0 0 1 10.21229,-2.759003 20.469124,20.469126 0 0 1 10.42727,2.906281 c 0.23375,-0.01852 0.46078,-0.0382 0.70487,-0.05426 a 20.469124,20.469126 0 0 0 -15.10502,-6.692617 z"
         style="opacity:1;vector-effect:none;fill:#c19e87;fill-opacity:1;stroke:none;stroke-width:0.26458332px;stroke-linecap:butt;stroke-linejoin:miter;stroke-miterlimit:4;stroke-dasharray:none;stroke-dashoffset:0;stroke-opacity:1"
         inkscape:connector-curvature="0" />
      <path
         id="path1743"
         d="m 171.67065,96.608061 c -0.56452,0.0076 -1.11682,0.132702 -1.58129,0.442352 -0.76303,0.50869 -1.49358,0.935664 -2.26808,1.322916 -1.00247,0.501232 -6.71202,-0.410064 -7.74837,-0.755509 -0.26047,-0.08683 -0.55106,-0.140282 -0.85783,-0.171051 a 24.22,24.220002 0 0 0 -2.64428,3.059761 c 0.1372,-0.0129 0.24133,-0.0302 0.28939,-0.0543 1.0539,-0.526948 1.88566,-1.573369 2.83497,-1.889806 1.78441,-0.594802 5.00246,1.293228 7.18147,0.566891 1.04614,-0.348715 1.97043,-0.492736 3.02359,-0.756026 0.8051,-0.201276 2.10147,0.36675 2.83497,0 0.63234,-0.316169 1.71713,-0.505417 2.48099,-0.553455 -0.008,-0.0043 -0.0185,-0.0077 -0.0243,-0.01344 -0.23468,-0.234685 -0.55778,-0.373454 -0.94465,-0.566891 -0.66053,-0.330266 -1.63571,-0.644168 -2.57659,-0.631486 z m 3.54553,1.211813 c 0.11935,0.06282 0.47182,-0.01344 0.35398,-0.01344 -0.10575,0 -0.22667,0.0054 -0.35398,0.01344 z"
         style="fill:#a05a2c;stroke:none;stroke-width:0.26458332px;stroke-linecap:butt;stroke-linejoin:miter;stroke-opacity:1"
         inkscape:connector-curvature="0" />
    </g>
  </g>
</svg>
