<?xml version="1.0" encoding="UTF-8" standalone="no"?>
<!-- Created with Inkscape (http://www.inkscape.org/) -->

<svg
   xmlns:dc="http://purl.org/dc/elements/1.1/"
   xmlns:cc="http://creativecommons.org/ns#"
   xmlns:rdf="http://www.w3.org/1999/02/22-rdf-syntax-ns#"
   xmlns:svg="http://www.w3.org/2000/svg"
   xmlns="http://www.w3.org/2000/svg"
   xmlns:sodipodi="http://sodipodi.sourceforge.net/DTD/sodipodi-0.dtd"
   xmlns:inkscape="http://www.inkscape.org/namespaces/inkscape"
   width="33.869999mm"
   height="33.869999mm"
   viewBox="0 0 33.869999 33.869999"
   version="1.1"
   id="svg4133"
   inkscape:version="0.92.4 (5da689c313, 2019-01-14)"
   sodipodi:docname="2019-SI-03_planet_mercury.svg">
  <defs
     id="defs4127" />
  <sodipodi:namedview
     id="base"
     pagecolor="#ffffff"
     bordercolor="#666666"
     borderopacity="1.0"
     inkscape:pageopacity="0.0"
     inkscape:pageshadow="2"
     inkscape:zoom="0.7"
     inkscape:cx="-488.0466"
     inkscape:cy="37.736672"
     inkscape:document-units="mm"
     inkscape:current-layer="layer1"
     showgrid="false"
     fit-margin-top="0"
     fit-margin-left="0"
     fit-margin-right="0"
     fit-margin-bottom="0"
     inkscape:window-width="1600"
     inkscape:window-height="837"
     inkscape:window-x="-8"
     inkscape:window-y="-8"
     inkscape:window-maximized="1" />
  <metadata
     id="metadata4130">
    <rdf:RDF>
      <cc:Work
         rdf:about="">
        <dc:format>image/svg+xml</dc:format>
        <dc:type
           rdf:resource="http://purl.org/dc/dcmitype/StillImage" />
        <dc:title></dc:title>
      </cc:Work>
    </rdf:RDF>
  </metadata>
  <g
     inkscape:label="Ebene 1"
     inkscape:groupmode="layer"
     id="layer1"
     transform="translate(-95.151499,-113.54784)">
    <g
       id="g1072"
       transform="translate(-27.584931,75.96379)">
      <path
         inkscape:connector-curvature="0"
         style="opacity:1;vector-effect:none;fill:#bbd3cf;fill-opacity:1;stroke:none;stroke-width:0.45668209;stroke-linecap:round;stroke-linejoin:round;stroke-miterlimit:4;stroke-dasharray:none;stroke-dashoffset:0;stroke-opacity:1"
         d="m 156.60643,54.519051 a 16.934999,16.934999 0 0 1 -16.935,16.934999 16.934999,16.934999 0 0 1 -16.935,-16.934999 16.934999,16.934999 0 0 1 16.935,-16.935 16.934999,16.934999 0 0 1 16.935,16.935 z"
         id="path815-1" />
      <path
         style="opacity:1;vector-effect:none;fill:#c4ded9;fill-opacity:1;stroke:none;stroke-width:0.45668209;stroke-linecap:round;stroke-linejoin:round;stroke-miterlimit:4;stroke-dasharray:none;stroke-dashoffset:0;stroke-opacity:1"
         d="m 130.5006,64.760644 a 13.9767,13.9767 0 0 1 -2.9719,-8.609086 13.9767,13.9767 0 0 1 13.97676,-13.976501 13.9767,13.9767 0 0 1 8.29232,2.745643 13.9767,13.9767 0 0 0 -11.0051,-5.368157 13.9767,13.9767 0 0 0 -13.97675,13.97675 13.9767,13.9767 0 0 0 5.68467,11.231351 z"
         id="path815-8-3"
         inkscape:connector-curvature="0" />
      <path
         id="path832"
         transform="scale(0.26458333)"
         d="m 539.64648,173.76562 c -2.5696,-0.007 -4.88766,0.26269 -6.78906,0.89649 -6.55056,2.18352 -16.26139,12.19868 -22.85742,10 -3.69445,-1.23148 -6.56883,-4.71216 -10,-6.42773 -5.43311,-2.71657 -12.63298,2.38777 -16.42773,4.28515 -2.59668,1.29834 -8.85724,-1.73741 -14.08204,-2.53515 a 64.006297,64.006297 0 0 0 -3.21875,9.0039 c 3.30207,0.96204 6.33396,1.83107 7.94141,1.02734 3.79476,-1.89737 10.99463,-7.00172 16.42773,-4.28515 3.43117,1.71557 6.30555,5.19625 10,6.42773 6.59604,2.19868 16.30686,-7.81648 22.85743,-10 10.14081,-3.38027 32.16169,3.58086 40.71484,7.85742 3.26518,1.6326 16.77665,0.77271 25.6582,0.2754 a 64.006297,64.006297 0 0 0 -2.1582,-6.93555 c -6.27281,0.21415 -12.14349,0.16263 -14.14062,-0.83594 -6.94944,-3.47471 -22.79085,-8.72163 -33.92579,-8.75391 z"
         style="opacity:1;vector-effect:none;fill:#d8ece8;fill-opacity:1;stroke:none;stroke-width:1.72604251;stroke-linecap:round;stroke-linejoin:round;stroke-miterlimit:4;stroke-dasharray:none;stroke-dashoffset:0;stroke-opacity:1"
         inkscape:connector-curvature="0" />
      <path
         id="path840"
         transform="scale(0.26458333)"
         d="m 547.94922,149.66016 c -8.73367,0.0165 -10.70887,0.41333 -18.66406,5.71679 -11.83299,16.40044 22.00542,5.10467 41.77929,3.5293 a 64.006297,64.006297 0 0 0 -12.94726,-9.24414 h -5.97461 c -1.56071,0 -2.94569,-0.004 -4.19336,-0.002 z"
         style="opacity:1;vector-effect:none;fill:#adc6c1;fill-opacity:1;stroke:none;stroke-width:1.72604251;stroke-linecap:round;stroke-linejoin:round;stroke-miterlimit:4;stroke-dasharray:none;stroke-dashoffset:0;stroke-opacity:1"
         inkscape:connector-curvature="0" />
      <path
         id="path842"
         transform="scale(0.26458333)"
         d="m 546.93945,253.8418 c -2.15476,-0.0237 -4.25097,0.58296 -5.97461,2.22851 -3.61644,3.32813 -9.16552,3.37532 -13.18554,0.76367 -5.75162,-3.48794 -25.38735,-1.66175 -40.97071,-1.70898 a 64.006297,64.006297 0 0 0 16.88477,10.15039 c 0.11763,0.0185 0.27275,0.0318 0.38672,0.0508 4.71231,-0.31253 9.21237,-2.16448 13.88867,-2.88281 8.85214,-1.78115 18.27434,-2.74373 26.97266,0.28711 5.35411,0.89691 11.75982,1.09807 16.10937,-2.66211 1.97666,-2.9586 -5.57043,-3.12088 -7.7793,-4.67578 -1.9631,-0.87394 -4.17726,-1.52713 -6.33203,-1.55078 z"
         style="opacity:1;vector-effect:none;fill:#adc6c1;fill-opacity:1;stroke:none;stroke-width:1.72604251;stroke-linecap:round;stroke-linejoin:round;stroke-miterlimit:4;stroke-dasharray:none;stroke-dashoffset:0;stroke-opacity:1"
         inkscape:connector-curvature="0" />
      <path
         id="path840-1"
         transform="scale(0.26458333)"
         d="m 494.2793,155.70898 c -1.24767,-0.002 -2.63266,0.004 -4.19336,0.004 h -1.69336 a 64.006297,64.006297 0 0 0 -10.13281,10.00195 c 6.33092,1.08103 12.48774,2.61387 15.39648,3.32813 3.38778,0.83188 15.75897,1.38161 18.57227,0 2.58973,-1.27184 7.18727,-3.50781 10,-3.50781 0.34185,0 -5.15984,-1.50965 -9.28516,-4.21094 -7.9552,-5.20915 -9.93039,-5.59904 -18.66406,-5.61524 z"
         style="opacity:1;vector-effect:none;fill:#adc6c1;fill-opacity:1;stroke:none;stroke-width:1.72604251;stroke-linecap:round;stroke-linejoin:round;stroke-miterlimit:4;stroke-dasharray:none;stroke-dashoffset:0;stroke-opacity:1"
         inkscape:connector-curvature="0" />
      <path
         id="path838-9"
         transform="scale(0.26458333)"
         d="m 499.73047,224.4375 c -5.42477,-0.0711 -10.85779,1.43841 -16.06445,5.78125 -4.26165,1.82642 -8.69062,2.98741 -13.05469,4.33984 a 64.006297,64.006297 0 0 0 9.20898,13.63672 c 7.2587,-0.52237 14.67624,-0.625 22.72071,-0.625 5.96968,0 13.38803,1.17943 19.28515,0 13.65566,-3.0629 32.62383,-18.18225 49.28516,-4.28515 2.26637,0.9713 4.58324,1.7416 6.91015,2.46289 a 64.006297,64.006297 0 0 0 6.36524,-9.67578 c -10.3373,-1.37987 -20.60243,-1.56641 -32.14844,-1.56641 -5.96969,0 -13.38803,1.17943 -19.28516,0 -9.38826,-2.10575 -21.28817,-9.91202 -33.22265,-10.06836 z"
         style="opacity:1;vector-effect:none;fill:#cfe5e1;fill-opacity:1;stroke:none;stroke-width:1.72604251;stroke-linecap:round;stroke-linejoin:round;stroke-miterlimit:4;stroke-dasharray:none;stroke-dashoffset:0;stroke-opacity:1"
         inkscape:connector-curvature="0" />
      <path
         id="path836"
         transform="scale(0.26458333)"
         d="m 500.54102,210.48633 c -6.29704,3.1485 -15.80604,4.28515 -22.85743,4.28515 -4.5589,0 -8.95724,-0.1513 -13.21679,-0.71679 0.29701,2.37246 0.72672,4.7264 1.28711,7.05078 17.58536,0.14281 36.26237,2.72526 53.53125,-0.72852 8.21544,-1.64309 16.92119,-6.04258 25.09961,-9.21679 -1.72583,-1.08521 -3.61407,-2.4669 -5.98633,-4.2461 -25.12061,-8.04799 -24.07709,0.57072 -37.85742,3.57227 z m 43.84375,0.67383 c 4.60539,2.89589 8.02232,3.61132 16.15625,3.61132 3.17146,0 7.60466,-0.54012 12.38476,-1.13867 -2.23039,-2.74487 -4.40894,-5.67301 -7.21094,-7.54101 -4.37401,-2.91601 -15.46226,2.89429 -19.28711,4.28515 -0.67462,0.24532 -1.3603,0.51825 -2.04296,0.78321 z m 28.54101,2.47265 c 0.90598,1.11496 1.82098,2.20379 2.78906,3.17188 4.09208,4.09207 8.42453,6.98313 13.01172,9.02539 1.46373,-4.48423 2.42726,-9.11653 2.87305,-13.8125 -5.69917,-0.0231 -12.48335,0.84008 -18.67383,1.61523 z"
         style="opacity:1;vector-effect:none;fill:#adc6c1;fill-opacity:1;stroke:none;stroke-width:1.72604251;stroke-linecap:round;stroke-linejoin:round;stroke-miterlimit:4;stroke-dasharray:none;stroke-dashoffset:0;stroke-opacity:1"
         inkscape:connector-curvature="0"
         sodipodi:nodetypes="csccsccccscsccccccc" />
    </g>
  </g>
</svg>
