<?xml version="1.0" encoding="UTF-8" standalone="no"?>
<!-- Created with Inkscape (http://www.inkscape.org/) -->

<svg
   xmlns:dc="http://purl.org/dc/elements/1.1/"
   xmlns:cc="http://creativecommons.org/ns#"
   xmlns:rdf="http://www.w3.org/1999/02/22-rdf-syntax-ns#"
   xmlns:svg="http://www.w3.org/2000/svg"
   xmlns="http://www.w3.org/2000/svg"
   xmlns:sodipodi="http://sodipodi.sourceforge.net/DTD/sodipodi-0.dtd"
   xmlns:inkscape="http://www.inkscape.org/namespaces/inkscape"
   width="44.041mm"
   height="44.041mm"
   viewBox="0 0 44.041 44.041"
   version="1.1"
   id="svg4133"
   inkscape:version="0.92.4 (5da689c313, 2019-01-14)"
   sodipodi:docname="2019-SI-03_planet_uranus.svg">
  <defs
     id="defs4127" />
  <sodipodi:namedview
     id="base"
     pagecolor="#ffffff"
     bordercolor="#666666"
     borderopacity="1.0"
     inkscape:pageopacity="0.0"
     inkscape:pageshadow="2"
     inkscape:zoom="0.7"
     inkscape:cx="-468.82579"
     inkscape:cy="56.957465"
     inkscape:document-units="mm"
     inkscape:current-layer="layer1"
     showgrid="false"
     fit-margin-top="0"
     fit-margin-left="0"
     fit-margin-right="0"
     fit-margin-bottom="0"
     inkscape:window-width="1600"
     inkscape:window-height="837"
     inkscape:window-x="-8"
     inkscape:window-y="-8"
     inkscape:window-maximized="1" />
  <metadata
     id="metadata4130">
    <rdf:RDF>
      <cc:Work
         rdf:about="">
        <dc:format>image/svg+xml</dc:format>
        <dc:type
           rdf:resource="http://purl.org/dc/dcmitype/StillImage" />
        <dc:title></dc:title>
      </cc:Work>
    </rdf:RDF>
  </metadata>
  <g
     inkscape:label="Ebene 1"
     inkscape:groupmode="layer"
     id="layer1"
     transform="translate(-90.065995,-108.46234)">
    <g
       id="g2290"
       transform="matrix(0.90918665,0,0,0.90918665,147.07819,29.580933)">
      <path
         id="path815-2-3-5-8"
         d="m -14.266812,110.98041 a 24.22,24.220002 0 0 1 -24.219999,24.22 24.22,24.220002 0 0 1 -24.22,-24.22 24.22,24.220002 0 0 1 24.22,-24.220001 24.22,24.220002 0 0 1 24.219999,24.220001 z"
         style="opacity:1;vector-effect:none;fill:#c3e5eb;fill-opacity:1;stroke:none;stroke-width:0.26458329px;stroke-linecap:butt;stroke-linejoin:miter;stroke-miterlimit:4;stroke-dasharray:none;stroke-dashoffset:0;stroke-opacity:1"
         inkscape:connector-curvature="0" />
      <path
         inkscape:connector-curvature="0"
         id="path815-8-3-0-7-6-1"
         d="m -52.250074,125.7952 a 20.469124,20.469126 0 0 1 -4.352394,-12.60816 20.469124,20.469126 0 0 1 20.469224,-20.468835 20.469124,20.469126 0 0 1 12.14424,4.021058 20.469124,20.469126 0 0 0 -16.117173,-7.861776 20.469124,20.469126 0 0 0 -20.469198,20.469203 20.469124,20.469126 0 0 0 8.325301,16.44851 z"
         style="opacity:1;vector-effect:none;fill:#e1f1f4;fill-opacity:1;stroke:none;stroke-width:0.26458329px;stroke-linecap:butt;stroke-linejoin:miter;stroke-miterlimit:4;stroke-dasharray:none;stroke-dashoffset:0;stroke-opacity:1" />
    </g>
  </g>
</svg>
