<?xml version="1.0" encoding="UTF-8" standalone="no"?>
<!-- Created with Inkscape (http://www.inkscape.org/) -->

<svg
   xmlns:dc="http://purl.org/dc/elements/1.1/"
   xmlns:cc="http://creativecommons.org/ns#"
   xmlns:rdf="http://www.w3.org/1999/02/22-rdf-syntax-ns#"
   xmlns:svg="http://www.w3.org/2000/svg"
   xmlns="http://www.w3.org/2000/svg"
   xmlns:sodipodi="http://sodipodi.sourceforge.net/DTD/sodipodi-0.dtd"
   xmlns:inkscape="http://www.inkscape.org/namespaces/inkscape"
   width="37.810001mm"
   height="37.810005mm"
   viewBox="0 0 37.810001 37.810005"
   version="1.1"
   id="svg4133"
   inkscape:version="0.92.4 (5da689c313, 2019-01-14)"
   sodipodi:docname="2019-SI-03_planet_venus.svg">
  <defs
     id="defs4127" />
  <sodipodi:namedview
     id="base"
     pagecolor="#ffffff"
     bordercolor="#666666"
     borderopacity="1.0"
     inkscape:pageopacity="0.0"
     inkscape:pageshadow="2"
     inkscape:zoom="0.7"
     inkscape:cx="-480.60093"
     inkscape:cy="45.182349"
     inkscape:document-units="mm"
     inkscape:current-layer="layer1"
     showgrid="false"
     fit-margin-top="0"
     fit-margin-left="0"
     fit-margin-right="0"
     fit-margin-bottom="0"
     inkscape:window-width="1600"
     inkscape:window-height="837"
     inkscape:window-x="-8"
     inkscape:window-y="-8"
     inkscape:window-maximized="1" />
  <metadata
     id="metadata4130">
    <rdf:RDF>
      <cc:Work
         rdf:about="">
        <dc:format>image/svg+xml</dc:format>
        <dc:type
           rdf:resource="http://purl.org/dc/dcmitype/StillImage" />
        <dc:title></dc:title>
      </cc:Work>
    </rdf:RDF>
  </metadata>
  <g
     inkscape:label="Ebene 1"
     inkscape:groupmode="layer"
     id="layer1"
     transform="translate(-93.181499,-111.57784)">
    <g
       transform="translate(19.204,48.262662)"
       id="g2911">
      <path
         inkscape:connector-curvature="0"
         id="path815-2"
         d="M 111.7875,82.220177 A 18.905001,18.905001 0 0 1 92.8825,101.12518 18.905001,18.905001 0 0 1 73.977499,82.220177 18.905001,18.905001 0 0 1 92.8825,63.315176 a 18.905001,18.905001 0 0 1 18.905,18.905001 z"
         style="opacity:1;vector-effect:none;fill:#ff9900;fill-opacity:1;stroke:none;stroke-width:0.50980657;stroke-linecap:round;stroke-linejoin:round;stroke-miterlimit:4;stroke-dasharray:none;stroke-dashoffset:0;stroke-opacity:1" />
      <path
         inkscape:connector-curvature="0"
         id="path815-8-3-0"
         d="M 82.13954,93.783909 A 15.977242,15.977242 0 0 1 78.74226,83.942565 15.977242,15.977242 0 0 1 94.719577,67.965552 15.977242,15.977242 0 0 1 104.19881,71.104197 15.977242,15.977242 0 0 0 91.618505,64.967668 15.977242,15.977242 0 0 0 75.6412,80.94497 15.977242,15.977242 0 0 0 82.13954,93.783909 Z"
         style="opacity:1;vector-effect:none;fill:#ffad33;fill-opacity:1;stroke:none;stroke-width:0.50980657;stroke-linecap:round;stroke-linejoin:round;stroke-miterlimit:4;stroke-dasharray:none;stroke-dashoffset:0;stroke-opacity:1" />
      <path
         inkscape:connector-curvature="0"
         id="path1093"
         transform="scale(0.26458333)"
         d="m 314.73242,294.48828 c -2.06831,-0.13533 -4.56227,0.75761 -7.20312,2.31445 -5.21544,2.90678 -10.73157,5.00415 -16.41016,6.57227 2.89742,-0.0218 5.05289,1.79626 5.75391,6.40625 6.97111,7.96126 15.06472,18.74344 26.82812,18.07227 15.73811,-1.30373 30.76851,4.72648 46.33789,5.58593 11.5249,-1.71614 23.30016,-1.05861 34.53711,2.25782 9.1799,1.71887 8.47414,-5.05424 8.20703,-11.73047 -6.52064,-0.59427 -13.10258,-0.38239 -19.60547,0.58593 -15.56938,-0.85945 -30.59978,-6.88965 -46.33789,-5.58593 -11.7634,0.67117 -19.85701,-10.11101 -26.82812,-18.07227 -0.66262,-4.35751 -2.62003,-6.23225 -5.2793,-6.40625 z m 98.05078,29.47852 c 2.76223,0.25174 5.51298,0.65005 8.24219,1.19531 a 71.451971,71.451971 0 0 0 1.40234,-12.89844 c -2.21105,0.0182 -4.40286,0.30037 -6.5625,1.03321 -3.24267,1.83986 -3.2596,6.23157 -3.08203,10.66992 z M 291.11914,303.375 c -1.33778,0.0101 -2.82992,0.40353 -4.41797,1.11328 1.48195,-0.33684 2.95541,-0.7094 4.41797,-1.11328 z m -4.41797,1.11328 c -2.26848,0.51562 -4.55534,0.95878 -6.85547,1.34375 a 71.451971,71.451971 0 0 0 -0.10156,2.02344 c 1.68831,-0.68484 3.27595,-1.40107 4.64844,-2.16602 0.7856,-0.46313 1.55638,-0.86498 2.30859,-1.20117 z"
         style="opacity:1;vector-effect:none;fill:#f5cc00;fill-opacity:1;stroke:none;stroke-width:0.99999994px;stroke-linecap:butt;stroke-linejoin:miter;stroke-miterlimit:4;stroke-dasharray:none;stroke-dashoffset:0;stroke-opacity:1" />
      <path
         inkscape:connector-curvature="0"
         id="path1097"
         transform="scale(0.26458333)"
         d="m 359.51953,364.87695 c -0.53883,0.0125 -1.09166,0.0615 -1.6582,0.15039 -9.43156,3.98302 -19.43575,6.611 -28.63867,11.19141 -0.62927,0.73054 -1.26083,1.33309 -1.89258,1.84375 a 71.451971,71.451971 0 0 0 23.72265,4.14258 71.451971,71.451971 0 0 0 33.49415,-8.39453 c -0.98318,-0.30093 -1.95888,-0.64138 -2.92774,-1.0293 -8.83451,-0.20717 -14.0172,-8.09151 -22.09961,-7.9043 z"
         style="opacity:1;vector-effect:none;fill:#f5cc00;fill-opacity:1;stroke:none;stroke-width:0.99999994px;stroke-linecap:butt;stroke-linejoin:miter;stroke-miterlimit:4;stroke-dasharray:none;stroke-dashoffset:0;stroke-opacity:1" />
      <path
         sodipodi:nodetypes="cccccccccccccccccccccc"
         inkscape:connector-curvature="0"
         id="path1091-6"
         transform="scale(0.26458333)"
         d="m 362.09961,263.50195 c -2.03632,-0.0665 -4.26249,0.86813 -6.4043,3.17969 -10.57032,6.31824 -15.88897,18.04871 -25.78906,24.96289 -10.0127,3.8128 -21.38077,4.13105 -31.52148,7.76953 3.47514,2.58695 6.06069,6.3007 7.0039,11.1875 -0.41287,8.4453 7.30834,15.15872 14.16211,7.76172 10.57034,-6.31823 19.17002,-9.71494 29.07011,-16.62913 10.01213,-3.81258 18.09821,-12.46735 28.23849,-16.10524 -3.47448,-2.58691 -6.06082,-6.30133 -7.00391,-11.1875 0.28385,-5.80614 -3.27595,-10.79323 -7.75586,-10.93946 z m 14.75977,22.12696 c 4.60159,3.4261 10.76612,4.86915 16.78124,4.39062 9.04658,1.03958 17.83954,3.68304 26.91016,4.51953 -2.22532,-9.54119 -6.38904,-18.5228 -12.23242,-26.38672 -7.7213,4.30393 -16.82293,6.87847 -23.0625,13.35743 -2.6538,1.76401 -5.47619,3.07146 -8.39648,4.11914 z m -78.47461,13.78515 c -4.60145,-3.42538 -10.76672,-4.86911 -16.78125,-4.39062 -0.0608,-0.007 -0.12089,-0.0183 -0.18164,-0.0254 -1.1873,5.15794 -1.79782,10.43183 -1.82032,15.72461 3.80472,-1.91774 7.42127,-4.10828 10.38672,-7.1875 2.65327,-1.76367 5.47681,-3.07352 8.39649,-4.1211 z"
         style="opacity:1;vector-effect:none;fill:#ff8b0c;fill-opacity:1;stroke:none;stroke-width:1.92682803;stroke-linecap:round;stroke-linejoin:round;stroke-miterlimit:4;stroke-dasharray:none;stroke-dashoffset:0;stroke-opacity:1" />
      <path
         inkscape:connector-curvature="0"
         id="path1099-6"
         transform="scale(0.26458333)"
         d="m 371.15625,242.23438 c -6.16821,2.35039 -11.70217,7.67857 -18.25977,8.85937 -8.89234,1.86064 -19.72279,-2.39767 -27.98242,-6.82422 a 71.451971,71.451971 0 0 0 -1.41992,0.63281 c 10.18405,7.13859 25.081,15.76745 35.27344,13.63477 9.75796,-1.75708 17.24303,-12.73091 27.9375,-9.3457 0.9345,0.45035 1.86285,0.92979 2.78906,1.42382 a 71.451971,71.451971 0 0 0 -18.33789,-8.38085 z"
         style="opacity:1;vector-effect:none;fill:#f5cc00;fill-opacity:1;stroke:none;stroke-width:0.99999994px;stroke-linecap:butt;stroke-linejoin:miter;stroke-miterlimit:4;stroke-dasharray:none;stroke-dashoffset:0;stroke-opacity:1" />
      <path
         inkscape:connector-curvature="0"
         id="path1089-4"
         transform="scale(0.26458333)"
         d="m 325.36719,263.17578 c -5.71592,0.0234 -12.35581,3.42475 -17.29883,5.47266 -5.39124,2.8025 -10.96446,3.20845 -16.61133,2.77734 a 71.451971,71.451971 0 0 0 -4.70117,8.36719 c 7.36224,-0.22571 14.71394,-0.79184 22.07617,-1.03125 10.74153,-1.11842 21.15352,1.67827 31.74609,2.72656 10.01579,0.22688 22.64347,-5.46053 28.72266,6.17774 5.43694,11.47738 18.56944,4.18739 26.89453,0.73828 7.07051,-3.67544 14.45581,-3.24098 21.90821,-2.17578 a 71.451971,71.451971 0 0 0 -3.91602,-8.83204 c -6.25218,0.26682 -12.49941,0.69115 -18.75391,0.89454 -10.74153,1.11842 -21.15351,-1.67828 -31.74609,-2.72657 -10.01578,-0.22687 -22.64346,5.46054 -28.72266,-6.17773 -2.20875,-4.66269 -5.68676,-6.22693 -9.59765,-6.21094 z"
         style="opacity:1;vector-effect:none;fill:#ffb11a;fill-opacity:1;stroke:none;stroke-width:1.92682803;stroke-linecap:round;stroke-linejoin:round;stroke-miterlimit:4;stroke-dasharray:none;stroke-dashoffset:0;stroke-opacity:1" />
      <path
         inkscape:connector-curvature="0"
         id="path1095-7"
         transform="scale(0.26458333)"
         d="m 388.52344,335.52148 c -16.48595,-0.0563 -31.05704,18.20051 -37.85156,11.31641 -16.11419,-9.36537 -35.10425,0.52281 -52.28711,2.43555 -3.6341,-0.9252 -7.31508,-3.6259 -11.01368,-6.11524 a 71.451971,71.451971 0 0 0 11.50586,16.33203 c 1.04471,0.50747 2.08716,0.92133 3.125,1.18555 17.18287,-1.91274 36.17488,-11.80092 52.28907,-2.43555 8.9248,9.04247 31.26434,-25.29073 53.74023,-4.52148 a 71.451971,71.451971 0 0 0 5.22461,-7.89063 c -2.45027,-1.1959 -5.02332,-2.07614 -7.82422,-2.5371 -5.70396,-5.69796 -11.41289,-7.75078 -16.9082,-7.76954 z"
         style="opacity:1;vector-effect:none;fill:#ffa826;fill-opacity:1;stroke:none;stroke-width:1.92682803;stroke-linecap:round;stroke-linejoin:round;stroke-miterlimit:4;stroke-dasharray:none;stroke-dashoffset:0;stroke-opacity:1" />
    </g>
  </g>
</svg>
